<mxfile host="65bd71144e">
    <diagram id="lsXV5JBQt807CrDM8ptu" name="Page-1">
        <mxGraphModel dx="2950" dy="1198" grid="1" gridSize="10" guides="1" tooltips="1" connect="1" arrows="1" fold="1" page="1" pageScale="1" pageWidth="850" pageHeight="1100" math="0" shadow="0">
            <root>
                <mxCell id="0"/>
                <mxCell id="1" parent="0"/>
                <mxCell id="2" value="" style="shape=umlLifeline;participant=umlActor;perimeter=lifelinePerimeter;whiteSpace=wrap;html=1;container=1;collapsible=0;recursiveResize=0;verticalAlign=top;spacingTop=36;outlineConnect=0;" vertex="1" parent="1">
                    <mxGeometry x="50" y="60" width="20" height="930" as="geometry"/>
                </mxCell>
                <mxCell id="5" value="user:InstaPayAccount" style="text;html=1;align=center;verticalAlign=middle;resizable=0;points=[];autosize=1;strokeColor=none;fillColor=none;" vertex="1" parent="1">
                    <mxGeometry x="-10" y="30" width="140" height="30" as="geometry"/>
                </mxCell>
                <mxCell id="6" value=":&lt;span style=&quot;&quot;&gt;InstapayApp&lt;/span&gt;" style="shape=umlLifeline;perimeter=lifelinePerimeter;whiteSpace=wrap;html=1;container=1;collapsible=0;recursiveResize=0;outlineConnect=0;size=30;" vertex="1" parent="1">
                    <mxGeometry x="110" y="60" width="90" height="930" as="geometry"/>
                </mxCell>
                <mxCell id="7" value="" style="html=1;points=[];perimeter=orthogonalPerimeter;" vertex="1" parent="6">
                    <mxGeometry x="40" y="80" width="10" height="120" as="geometry"/>
                </mxCell>
                <mxCell id="14" value="transfer.transfer()" style="html=1;verticalAlign=bottom;endArrow=block;" edge="1" parent="6" target="9">
                    <mxGeometry width="80" relative="1" as="geometry">
                        <mxPoint x="50" y="180" as="sourcePoint"/>
                        <mxPoint x="130" y="180" as="targetPoint"/>
                    </mxGeometry>
                </mxCell>
                <mxCell id="15" value="display menu to user" style="html=1;verticalAlign=bottom;endArrow=open;dashed=1;endSize=8;" edge="1" parent="6" target="2">
                    <mxGeometry x="-0.1128" y="-10" relative="1" as="geometry">
                        <mxPoint x="130" y="235" as="sourcePoint"/>
                        <mxPoint x="50" y="220" as="targetPoint"/>
                        <Array as="points">
                            <mxPoint x="160" y="235"/>
                            <mxPoint x="130" y="235"/>
                            <mxPoint x="50" y="235"/>
                        </Array>
                        <mxPoint as="offset"/>
                    </mxGeometry>
                </mxCell>
                <mxCell id="16" value="choose to pay bill" style="html=1;verticalAlign=bottom;endArrow=block;" edge="1" parent="6" target="9">
                    <mxGeometry width="80" relative="1" as="geometry">
                        <mxPoint x="-50" y="260" as="sourcePoint"/>
                        <mxPoint x="120" y="260" as="targetPoint"/>
                    </mxGeometry>
                </mxCell>
                <mxCell id="17" value="display menu to user" style="html=1;verticalAlign=bottom;endArrow=open;dashed=1;endSize=8;" edge="1" parent="6">
                    <mxGeometry y="-10" relative="1" as="geometry">
                        <mxPoint x="130.33" y="310" as="sourcePoint"/>
                        <mxPoint x="-50.00333333333326" y="310" as="targetPoint"/>
                        <Array as="points">
                            <mxPoint x="150" y="310"/>
                            <mxPoint x="130.33" y="310"/>
                            <mxPoint x="100.33000000000001" y="310"/>
                            <mxPoint x="70.33000000000001" y="310"/>
                        </Array>
                        <mxPoint as="offset"/>
                    </mxGeometry>
                </mxCell>
                <mxCell id="19" value="choose to pay WaterBill" style="html=1;verticalAlign=bottom;endArrow=block;" edge="1" parent="6" target="9">
                    <mxGeometry width="80" relative="1" as="geometry">
                        <mxPoint x="-50" y="350" as="sourcePoint"/>
                        <mxPoint x="120" y="350" as="targetPoint"/>
                    </mxGeometry>
                </mxCell>
                <mxCell id="8" value="choose Transfer" style="html=1;verticalAlign=bottom;endArrow=block;" edge="1" parent="1" source="2" target="7">
                    <mxGeometry width="80" relative="1" as="geometry">
                        <mxPoint x="380" y="390" as="sourcePoint"/>
                        <mxPoint x="460" y="390" as="targetPoint"/>
                        <Array as="points">
                            <mxPoint x="110" y="170"/>
                        </Array>
                    </mxGeometry>
                </mxCell>
                <mxCell id="9" value="transfer:Transfer" style="shape=umlLifeline;perimeter=lifelinePerimeter;whiteSpace=wrap;html=1;container=1;collapsible=0;recursiveResize=0;outlineConnect=0;size=30;" vertex="1" parent="1">
                    <mxGeometry x="220" y="60" width="100" height="870" as="geometry"/>
                </mxCell>
                <mxCell id="52" value="" style="html=1;points=[];perimeter=orthogonalPerimeter;" vertex="1" parent="9">
                    <mxGeometry x="45" y="130" width="10" height="690" as="geometry"/>
                </mxCell>
                <mxCell id="53" value="" style="shape=umlDestroy;" vertex="1" parent="9">
                    <mxGeometry x="35" y="850" width="30" height="30" as="geometry"/>
                </mxCell>
                <mxCell id="11" value="Transfer(user)" style="html=1;verticalAlign=bottom;endArrow=block;" edge="1" parent="1" source="6">
                    <mxGeometry width="80" relative="1" as="geometry">
                        <mxPoint x="160" y="200" as="sourcePoint"/>
                        <mxPoint x="265" y="200" as="targetPoint"/>
                        <Array as="points">
                            <mxPoint x="200" y="200"/>
                        </Array>
                    </mxGeometry>
                </mxCell>
                <mxCell id="20" value="provider:Provider" style="shape=umlLifeline;perimeter=lifelinePerimeter;whiteSpace=wrap;html=1;container=1;collapsible=0;recursiveResize=0;outlineConnect=0;size=30;" vertex="1" parent="1">
                    <mxGeometry x="350" y="60" width="130" height="810" as="geometry"/>
                </mxCell>
                <mxCell id="24" value="" style="html=1;verticalAlign=bottom;endArrow=block;entryX=-0.213;entryY=0.141;entryDx=0;entryDy=0;entryPerimeter=0;" edge="1" parent="20" target="58">
                    <mxGeometry width="80" relative="1" as="geometry">
                        <mxPoint x="-60" y="390" as="sourcePoint"/>
                        <mxPoint x="100" y="390" as="targetPoint"/>
                    </mxGeometry>
                </mxCell>
                <mxCell id="26" value="BillPayment()" style="edgeLabel;html=1;align=center;verticalAlign=middle;resizable=0;points=[];" vertex="1" connectable="0" parent="24">
                    <mxGeometry x="-0.2843" y="2" relative="1" as="geometry">
                        <mxPoint x="9" y="-8" as="offset"/>
                    </mxGeometry>
                </mxCell>
                <mxCell id="49" value="deduceBalance(amount ,&lt;br&gt;user.getPhoneNumber())" style="text;html=1;align=center;verticalAlign=middle;resizable=0;points=[];autosize=1;strokeColor=none;fillColor=none;" vertex="1" parent="20">
                    <mxGeometry x="-75" y="630" width="160" height="40" as="geometry"/>
                </mxCell>
                <mxCell id="48" value="&lt;div style=&quot;background-color: rgb(15, 17, 26); font-family: &amp;quot;Droid Sans Mono&amp;quot;, &amp;quot;monospace&amp;quot;, monospace; font-size: 14px; line-height: 19px;&quot;&gt;&lt;br&gt;&lt;/div&gt;" style="text;html=1;align=center;verticalAlign=middle;resizable=0;points=[];autosize=1;strokeColor=none;fillColor=none;" vertex="1" parent="20">
                    <mxGeometry x="-20" y="660" width="20" height="30" as="geometry"/>
                </mxCell>
                <mxCell id="54" value="" style="html=1;points=[];perimeter=orthogonalPerimeter;" vertex="1" parent="20">
                    <mxGeometry x="60" y="180" width="15" height="90" as="geometry"/>
                </mxCell>
                <mxCell id="55" value="" style="html=1;points=[];perimeter=orthogonalPerimeter;" vertex="1" parent="20">
                    <mxGeometry x="60" y="655" width="15" height="40" as="geometry"/>
                </mxCell>
                <mxCell id="28" value=":BillPayment" style="shape=umlLifeline;perimeter=lifelinePerimeter;whiteSpace=wrap;html=1;container=1;collapsible=0;recursiveResize=0;outlineConnect=0;size=30;" vertex="1" parent="1">
                    <mxGeometry x="470" y="70" width="100" height="840" as="geometry"/>
                </mxCell>
                <mxCell id="32" value="setBillData(ID)" style="html=1;verticalAlign=bottom;endArrow=block;" edge="1" parent="28">
                    <mxGeometry width="80" relative="1" as="geometry">
                        <mxPoint x="50" y="510" as="sourcePoint"/>
                        <mxPoint x="190" y="510" as="targetPoint"/>
                    </mxGeometry>
                </mxCell>
                <mxCell id="58" value="" style="html=1;points=[];perimeter=orthogonalPerimeter;" vertex="1" parent="28">
                    <mxGeometry x="40" y="350" width="20" height="220" as="geometry"/>
                </mxCell>
                <mxCell id="64" value="" style="shape=umlDestroy;whiteSpace=wrap;html=1;strokeWidth=3;" vertex="1" parent="28">
                    <mxGeometry x="35" y="780" width="30" height="30" as="geometry"/>
                </mxCell>
                <mxCell id="65" style="edgeStyle=none;html=1;entryX=0.442;entryY=0.45;entryDx=0;entryDy=0;entryPerimeter=0;" edge="1" parent="28" source="28" target="64">
                    <mxGeometry relative="1" as="geometry"/>
                </mxCell>
                <mxCell id="29" value="check(user.getPhoneNumber()+&quot;WaterBill&quot;)" style="html=1;verticalAlign=bottom;endArrow=block;" edge="1" parent="1">
                    <mxGeometry width="80" relative="1" as="geometry">
                        <mxPoint x="280" y="510" as="sourcePoint"/>
                        <mxPoint x="510" y="510" as="targetPoint"/>
                        <mxPoint as="offset"/>
                    </mxGeometry>
                </mxCell>
                <mxCell id="30" value="WaterBill()" style="html=1;verticalAlign=bottom;endArrow=block;" edge="1" parent="1">
                    <mxGeometry width="80" relative="1" as="geometry">
                        <mxPoint x="520" y="540" as="sourcePoint"/>
                        <mxPoint x="660" y="540" as="targetPoint"/>
                    </mxGeometry>
                </mxCell>
                <mxCell id="31" value=":WaterBill" style="shape=umlLifeline;perimeter=lifelinePerimeter;whiteSpace=wrap;html=1;container=1;collapsible=0;recursiveResize=0;outlineConnect=0;" vertex="1" parent="1">
                    <mxGeometry x="620" y="60" width="100" height="810" as="geometry"/>
                </mxCell>
                <mxCell id="61" value="" style="html=1;points=[];perimeter=orthogonalPerimeter;" vertex="1" parent="31">
                    <mxGeometry x="40" y="470" width="20" height="120" as="geometry"/>
                </mxCell>
                <mxCell id="62" value="" style="html=1;points=[];perimeter=orthogonalPerimeter;" vertex="1" parent="31">
                    <mxGeometry x="35" y="710" width="25" height="60" as="geometry"/>
                </mxCell>
                <mxCell id="33" value="true" style="html=1;verticalAlign=bottom;endArrow=open;dashed=1;endSize=8;" edge="1" parent="1">
                    <mxGeometry relative="1" as="geometry">
                        <mxPoint x="650" y="600" as="sourcePoint"/>
                        <mxPoint x="530" y="600" as="targetPoint"/>
                    </mxGeometry>
                </mxCell>
                <mxCell id="45" value="dispalyBill()" style="html=1;verticalAlign=bottom;endArrow=block;entryX=-0.088;entryY=0.842;entryDx=0;entryDy=0;entryPerimeter=0;" edge="1" parent="1" target="61">
                    <mxGeometry x="-0.0732" width="80" relative="1" as="geometry">
                        <mxPoint x="530" y="630" as="sourcePoint"/>
                        <mxPoint x="650" y="630" as="targetPoint"/>
                        <mxPoint as="offset"/>
                    </mxGeometry>
                </mxCell>
                <mxCell id="46" value="enter BillId and amount" style="html=1;verticalAlign=bottom;endArrow=block;" edge="1" parent="1" target="9">
                    <mxGeometry width="80" relative="1" as="geometry">
                        <mxPoint x="60" y="700" as="sourcePoint"/>
                        <mxPoint x="250" y="700" as="targetPoint"/>
                    </mxGeometry>
                </mxCell>
                <mxCell id="50" value="pay(amount,BillID)" style="html=1;verticalAlign=bottom;endArrow=block;" edge="1" parent="1">
                    <mxGeometry width="80" relative="1" as="geometry">
                        <mxPoint x="280" y="770" as="sourcePoint"/>
                        <mxPoint x="500" y="770" as="targetPoint"/>
                    </mxGeometry>
                </mxCell>
                <mxCell id="51" value="pay(amount,BIllID)" style="html=1;verticalAlign=bottom;endArrow=block;startArrow=none;exitX=1.15;exitY=0.762;exitDx=0;exitDy=0;exitPerimeter=0;" edge="1" parent="1" source="59">
                    <mxGeometry width="80" relative="1" as="geometry">
                        <mxPoint x="510" y="810" as="sourcePoint"/>
                        <mxPoint x="650" y="810" as="targetPoint"/>
                    </mxGeometry>
                </mxCell>
                <mxCell id="47" value="&lt;div style=&quot;color: rgb(186, 190, 216); background-color: rgb(15, 17, 26); font-family: &amp;quot;Droid Sans Mono&amp;quot;, &amp;quot;monospace&amp;quot;, monospace; font-size: 14px; line-height: 19px;&quot;&gt;&lt;br&gt;&lt;/div&gt;" style="html=1;verticalAlign=bottom;endArrow=block;exitX=0.9;exitY=0.795;exitDx=0;exitDy=0;exitPerimeter=0;" edge="1" parent="1" source="52" target="20">
                    <mxGeometry width="80" relative="1" as="geometry">
                        <mxPoint x="280" y="740" as="sourcePoint"/>
                        <mxPoint x="380" y="740" as="targetPoint"/>
                    </mxGeometry>
                </mxCell>
                <mxCell id="22" value="Provider()" style="html=1;verticalAlign=bottom;endArrow=block;entryX=0.133;entryY=0.358;entryDx=0;entryDy=0;entryPerimeter=0;" edge="1" parent="1" source="52" target="54">
                    <mxGeometry width="80" relative="1" as="geometry">
                        <mxPoint x="290" y="270" as="sourcePoint"/>
                        <mxPoint x="370" y="270" as="targetPoint"/>
                    </mxGeometry>
                </mxCell>
                <mxCell id="60" value="" style="html=1;verticalAlign=bottom;endArrow=none;" edge="1" parent="1" target="59">
                    <mxGeometry width="80" relative="1" as="geometry">
                        <mxPoint x="510" y="810" as="sourcePoint"/>
                        <mxPoint x="650" y="810" as="targetPoint"/>
                    </mxGeometry>
                </mxCell>
                <mxCell id="59" value="" style="html=1;points=[];perimeter=orthogonalPerimeter;" vertex="1" parent="1">
                    <mxGeometry x="505" y="750" width="30" height="80" as="geometry"/>
                </mxCell>
                <mxCell id="63" value="" style="shape=umlDestroy;whiteSpace=wrap;html=1;strokeWidth=3;" vertex="1" parent="1">
                    <mxGeometry x="655" y="850" width="30" height="30" as="geometry"/>
                </mxCell>
                <mxCell id="57" value="" style="shape=umlDestroy;whiteSpace=wrap;html=1;strokeWidth=3;" vertex="1" parent="1">
                    <mxGeometry x="397.5" y="860" width="35" height="30" as="geometry"/>
                </mxCell>
                <mxCell id="66" value="" style="html=1;points=[];perimeter=orthogonalPerimeter;" vertex="1" parent="1">
                    <mxGeometry x="140" y="930" width="30" height="80" as="geometry"/>
                </mxCell>
            </root>
        </mxGraphModel>
    </diagram>
</mxfile>